<svg version="1.1" xmlns="http://www.w3.org/2000/svg" xmlns:xlink="http://www.w3.org/1999/xlink" width="96" height="96" viewBox="0,0,256,256"><g transform="translate(26.66667,26.66667) scale(0.79167,0.79167)"><g fill="#000000" fill-rule="nonzero" stroke="none" stroke-width="1" stroke-linecap="butt" stroke-linejoin="miter" stroke-miterlimit="10" stroke-dasharray="" stroke-dashoffset="0" font-family="none" font-weight="none" font-size="none" text-anchor="none" style="mix-blend-mode: normal"><g transform="translate(-0.00602,-0.00009) scale(4,4)"><path d="M61.287,53.542c-2.649,-2.041 -9.702,-7.678 -16.271,-14.452c-4.366,-4.505 -6.223,-9.015 -9.533,-12.429c-2.998,-3.092 -5.725,-4.894 -5.725,-4.894l-0.768,0.792l-5.188,-5.35l2.004,-2.067c0.33804,-0.35276 0.33804,-0.90924 0,-1.262l-0.414,-0.427c0.002,-0.002 5.898,-7.936 13.353,-5.742c0.866,0.257 1.638,0.694 1.857,0.471c0.298,-0.306 -0.837,-1.482 -1.502,-2.162c-9.431,-9.65 -19.834,1.104 -19.839,1.109l-0.367,-0.379c-0.15958,-0.16663 -0.38028,-0.26085 -0.611,-0.26085c-0.23072,0 -0.45142,0.09423 -0.611,0.26085l-9.239,9.528c-0.33804,0.35276 -0.33804,0.90924 0,1.262c0,0 1.131,1.979 -1.835,2.335c-1.194,0.145 -1.942,0.414 -2.366,0.769c-0.66185,0.66751 -1.32152,1.33718 -1.979,2.009c-0.33804,0.35276 -0.33804,0.90924 0,1.262l6.914,7.132c0.15975,0.16668 0.38062,0.26093 0.6115,0.26093c0.23088,0 0.45175,-0.09425 0.6115,-0.26093c0,0 1.906,-1.99 1.947,-2.042c0.343,-0.438 0.605,-1.208 0.743,-2.44c0.348,-3.06 2.264,-1.892 2.264,-1.892c0.15964,0.16726 0.38078,0.2619 0.612,0.2619c0.23122,0 0.45236,-0.09464 0.612,-0.2619l2.004,-2.067l5.186,5.349l-0.768,0.793c0,0 1.748,2.813 4.746,5.905c3.309,3.413 7.683,5.328 12.05,9.833c6.567,6.774 12.032,14.047 14.014,16.78c0.748,1.029 0.867,0.934 1.78,-0.009l2.849,-2.938l2.847,-2.937c0.915,-0.946 1.009,-1.068 0.011,-1.84"></path><path d="M34.008,22.689c0.85825,0.77535 1.69103,1.57844 2.497,2.408c1.592,1.642 2.924,3.479 4.259,5.44l8.942,-8.943c3.3723,0.82416 6.93023,-0.17114 9.38539,-2.62548c2.45516,-2.45435 3.45165,-6.01195 2.62861,-9.38452l-8.116,8.116l-5.76,-1.543l-1.544,-5.763l8.114,-8.111c-3.37177,-0.82503 -6.92953,0.1724 -9.381,2.63c-2.45551,2.4523 -3.45296,6.00841 -2.631,9.38l-8.394,8.396M26.489,35.429c-0.85756,-0.88562 -1.68438,-1.80049 -2.479,-2.743l-9.717,9.718c-3.37158,-0.82406 -6.9287,0.17281 -9.381,2.629c-3.883,3.88 -3.882,10.174 0,14.055c1.8632,1.86458 4.39106,2.9122 7.027,2.9122c2.63594,0 5.1638,-1.04763 7.027,-2.9122c2.45567,-2.45385 3.45304,-6.01117 2.631,-9.384l10.004,-10.003c-1.84,-1.338 -3.567,-2.679 -5.112,-4.272M13.483,57.821l-5.761,-1.544l-1.543,-5.762l4.218,-4.215l5.76,1.541l1.543,5.763l-4.217,4.217"></path></g></g></g></svg>