<svg version="1.1" xmlns="http://www.w3.org/2000/svg" xmlns:xlink="http://www.w3.org/1999/xlink" width="96" height="96" viewBox="0,0,256,256"><g transform="translate(26.66667,26.66667) scale(0.79167,0.79167)"><g fill="#000000" fill-rule="nonzero" stroke="none" stroke-width="1" stroke-linecap="butt" stroke-linejoin="miter" stroke-miterlimit="10" stroke-dasharray="" stroke-dashoffset="0" font-family="none" font-weight="none" font-size="none" text-anchor="none" style="mix-blend-mode: normal"><g transform="translate(0,0.00025) scale(0.5,0.5)"><path d="M148.102,368.333l-23.354,-7.095l-1.182,-282.605l-53.802,25.718l-2.956,240.333l-19.214,-5.913l-1.479,-223.187l-46.115,22.171v236.49l211.954,101.985v-440.461l-61.487,29.561zM238.559,44.046v197.469l273.441,4.73v-117.95l-273.441,-84.248zM299.751,141.598l167.612,32.222v18.919l-167.613,-20.693v-30.448zM238.559,270.485v197.764l273.441,-84.545v-117.949zM299.751,338.475l167.612,-19.51v18.92l-167.613,31.039v-30.448z"></path></g></g></g></svg>